/* XPM */
static char *_bf8dcf4b863b572c606028c45624e5b6914edd9_o[] = {
/* columns rows colors chars-per-pixel */
"32 32 4 1 ",
"  c #D4D29B",
". c #584422",
"X c #78A46A",
"o c #5E8549",
/* pixels */
"  ............................  ",
"  ............................  ",
"..          XX        XX  XXXX..",
"..          XX        XX  XXXX..",
"..  ........................XX..",
"..  ........................XX..",
"..  ........................XX..",
"..  ........................XX..",
"..XX........................XX..",
"..XX........................XX..",
"..XX..............        ..XX..",
"..XX..............        ..XX..",
"..XX..............  XXXXXX..XX..",
"..XX..............  XXXXXX..XX..",
"..XX......XXXXXXXX  XXXXXX..XX..",
"..XX......XXXXXXXX  XXXXXX..XX..",
"..XX......XXoooooo  XXXXXX..  ..",
"..XX......XXoooooo  XXXXXX..  ..",
"..XX..ooooXXoooooo  XXXXXX..XX..",
"..XX..ooooXXoooooo  XXXXXX..XX..",
"..XX......XXoooooo  XXXXXX..  ..",
"..XX......XXoooooo  XXXXXX..  ..",
"..XX......XXoooooo  XXXXXX..  ..",
"..XX......XXoooooo  XXXXXX..  ..",
"..XX......XXoooooo  XXXXXX..  ..",
"..XX......XXoooooo  XXXXXX..  ..",
"..XX........................  ..",
"..XX........................  ..",
"..XXXXXXXXXX  XXXX      XX    ..",
"..XXXXXXXXXX  XXXX      XX    ..",
"  ............................  ",
"  ............................  "
};
