/* XPM */
static char *d6569af9b8c50f0b6808461581726dc27af3e7fb_o[] = {
/* columns rows colors chars-per-pixel */
"32 32 4 1 ",
"  c #D4D29B",
". c #78A46A",
"X c #5E8549",
"o c #584422",
/* pixels */
"                                ",
"                                ",
"                                ",
"                                ",
"                                ",
"                                ",
"                                ",
"                                ",
"        ..        XXXXXXXX      ",
"        ..        XXXXXXXX      ",
"                oo..      XX    ",
"                oo..      XX    ",
"    oooooooooooooo..oooo  XX    ",
"    oooooooooooooo..oooo  XX    ",
"    oo..............oooo  XX    ",
"    oo..............oooo  XX    ",
"    oo..oo..oooooo..ooooXXXX    ",
"    oo..oo..oooooo..ooooXXXX    ",
"    oooooooooo  oo..XXXX..oo    ",
"    oooooooooo  oo..XXXX..oo    ",
"                  oooooooo      ",
"                  oooooooo      ",
"                                ",
"                                ",
"          ..            ..      ",
"          ..            ..      ",
"        ..  ..                  ",
"        ..  ..                  ",
"                                ",
"                                ",
"                                ",
"                                "
};
