/* XPM */
static char *d74a202aa5173edba215dd26f3b11ad227c531de_o[] = {
/* columns rows colors chars-per-pixel */
"32 32 4 1 ",
"  c #D4D29B",
". c #78A46A",
"X c #584422",
"o c #5E8549",
/* pixels */
"                                ",
"                                ",
"                                ",
"                                ",
"                                ",
"                                ",
"                                ",
"                                ",
"        ..        XXXXXXXX      ",
"        ..        XXXXXXXX      ",
"                XX........XX    ",
"                XX........XX    ",
"    XXXXXXXXXXXXXX..XXXXooXX    ",
"    XXXXXXXXXXXXXX..XXXXooXX    ",
"    XX..............XXXX..XX    ",
"    XX..............XXXX..XX    ",
"    XX..XX..XXXXXX..XXXXooXX    ",
"    XX..XX..XXXXXX..XXXXooXX    ",
"    XXXXXXXXXX  XX..ooooooXX    ",
"    XXXXXXXXXX  XX..ooooooXX    ",
"                  XXXXXXXX      ",
"                  XXXXXXXX      ",
"                                ",
"                                ",
"          ..            ..      ",
"          ..            ..      ",
"        ..  ..                  ",
"        ..  ..                  ",
"                                ",
"                                ",
"                                ",
"                                "
};
