/* XPM */
static char *d4a13e92e3742063c17423dbf275b0342ba05e90_o[] = {
/* columns rows colors chars-per-pixel */
"32 32 4 1 ",
"  c #D4D29B",
". c #78A46A",
"X c #5E8549",
"o c #584422",
/* pixels */
"                                ",
"                                ",
"                                ",
"                                ",
"                                ",
"                                ",
"                                ",
"                                ",
"        ..        XXoooooo      ",
"        ..        XXoooooo      ",
"                XX    ....oo    ",
"                XX    ....oo    ",
"    ooooooooXXXXXX  XXXXXXoo    ",
"    ooooooooXXXXXX  XXXXXXoo    ",
"    oo......      ..XXoo..oo    ",
"    oo......      ..XXoo..oo    ",
"    oo..oo..oooooo..XXoo  XX    ",
"    oo..oo..oooooo..XXoo  XX    ",
"    oooooooooo  oo..      XX    ",
"    oooooooooo  oo..      XX    ",
"                  ooXXXXXX      ",
"                  ooXXXXXX      ",
"                                ",
"                                ",
"          ..            ..      ",
"          ..            ..      ",
"        ..  ..                  ",
"        ..  ..                  ",
"                                ",
"                                ",
"                                ",
"                                "
};
