/* XPM */
static char *_c644189fdde3ade79862ffc52ec40488819e0f7_o[] = {
/* columns rows colors chars-per-pixel */
"32 32 4 1 ",
"  c #D4D29B",
". c #78A46A",
"X c #584422",
"o c #5E8549",
/* pixels */
"                                ",
"                                ",
"                                ",
"                                ",
"                                ",
"                                ",
"                                ",
"                                ",
"        ..        XXXXXXXX      ",
"        ..        XXXXXXXX      ",
"                XX........XX    ",
"                XX........XX    ",
"    ooooooooXXXXXX..XXXXooXX    ",
"    ooooooooXXXXXX..XXXXooXX    ",
"    oo        ......XXXX..XX    ",
"    oo        ......XXXX..XX    ",
"    oo  oo  ooooXX..XXXXooXX    ",
"    oo  oo  ooooXX..XXXXooXX    ",
"    XXooXXooXX  XX  ooooooXX    ",
"    XXooXXooXX  XX  ooooooXX    ",
"                  ooXXXXXX      ",
"                  ooXXXXXX      ",
"                                ",
"                                ",
"          ..            ..      ",
"          ..            ..      ",
"        ..  ..                  ",
"        ..  ..                  ",
"                                ",
"                                ",
"                                ",
"                                "
};
