/* XPM */
static char *_1cd3d10baf84751a3e7d8536c053941FoOeA6rHeuAlDvqb[] = {
/* columns rows colors chars-per-pixel */
"32 32 4 1 ",
"  c #584422",
". c #5E8549",
"X c #78A46A",
"o c #D4D29B",
/* pixels */
"oooooooooooooooooooooooooooooooo",
"oooooooooooooooooooooooooooooooo",
"oooooooooooooooooooooooooooooooo",
"oooooooooooooooooooooooooooooooo",
"oooooooooooooooooo    oooooooooo",
"oooooooooooooooooo    oooooooooo",
"oooooooooooooooo  ooXX  oooooooo",
"oooooooooooooooo  ooXX  oooooooo",
"ooooooooXXoooooooo  ..  oooooooo",
"ooooooooXXoooooooo  ..  oooooooo",
"oooo        oooooo  ..  oooooooo",
"oooo        oooooo  ..  oooooooo",
"oo  ooooXXXX  ooXXXX      oooooo",
"oo  ooooXXXX  ooXXXX      oooooo",
"oooo  ......XX  oo      XX  oooo",
"oooo  ......XX  oo      XX  oooo",
"oooooo  ......XX  XX  XX....  oo",
"oooooo  ......XX  XX  XX....  oo",
"oooooo  ..    ............oo  oo",
"oooooo  ..    ............oo  oo",
"oooooooo  oooo    ....oo....  oo",
"oooooooo  oooo    ....oo....  oo",
"oooooooooooooooo  ........  oooo",
"oooooooooooooooo  ........  oooo",
"ooooooooooXXoooooo        oooooo",
"ooooooooooXXoooooo        oooooo",
"ooooooooXXooXXoooooooooooooooooo",
"ooooooooXXooXXoooooooooooooooooo",
"oooooooooooooooooooooooooooooooo",
"oooooooooooooooooooooooooooooooo",
"oooooooooooooooooooooooooooooooo",
"oooooooooooooooooooooooooooooooo"
};
