/* XPM */
static char *a3a2a63882acc864c59701b4bfaad8f73e74ef07_o[] = {
/* columns rows colors chars-per-pixel */
"32 32 4 1 ",
"  c #D4D29B",
". c #584422",
"X c #78A46A",
"o c #5E8549",
/* pixels */
"                                ",
"                                ",
"                                ",
"                                ",
"                                ",
"                                ",
"                      ..        ",
"                      ..        ",
"        XX          ......      ",
"        XX          ......      ",
"                  ......XX..    ",
"                  ......XX..    ",
"      ........  ..XX..XXoooo..  ",
"      ........  ..XX..XXoooo..  ",
"    ..    XXXX....oooooooo  ..  ",
"    ..    XXXX....oooooooo  ..  ",
"  ..XXoooooooooooooooo  oooo..  ",
"  ..XXoooooooooooooooo  oooo..  ",
"    ....oooooooo..oooooooo..    ",
"    ....oooooooo..oooooooo..    ",
"        ..oo....  ........      ",
"        ..oo....  ........      ",
"          ..                    ",
"          ..                    ",
"          XX            XX      ",
"          XX            XX      ",
"        XX  XX                  ",
"        XX  XX                  ",
"                                ",
"                                ",
"                                ",
"                                "
};
