/* XPM */
static char *_9ee5ea8bb6b1f1623caeb4f6d97617c2c473f61_o[] = {
/* columns rows colors chars-per-pixel */
"32 32 4 1 ",
"  c #D4D29B",
". c #584422",
"X c #78A46A",
"o c #5E8549",
/* pixels */
"                                ",
"                                ",
"                    ..          ",
"                    ..          ",
"              ..  ..XX..        ",
"              ..  ..XX..        ",
"            ..XX..XXoooo..      ",
"            ..XX..XXoooo..      ",
"        XX  ..oooooooo  ..      ",
"        XX  ..oooooooo  ..      ",
"        ....oooooo  oooo..      ",
"        ....oooooo  oooo..      ",
"      ..  XX..oooooooo....      ",
"      ..  XX..oooooooo....      ",
"    ..  oooo..........oo..      ",
"    ..  oooo..........oo..      ",
"    ..oooo..          ..oo..    ",
"    ..oooo..          ..oo..    ",
"    ..XXoo..        ..oooo..    ",
"    ..XXoo..        ..oooo..    ",
"    ..oooooo..        ..oo..    ",
"    ..oooooo..        ..oo..    ",
"      ..oo..            ..      ",
"      ..oo..            ..      ",
"      ..oo..            XX      ",
"      ..oo..            XX      ",
"        ..  XX                  ",
"        ..  XX                  ",
"                                ",
"                                ",
"                                ",
"                                "
};
