/* XPM */
static char *_931e995ef37244b29becc6ff373e8b8ffeccaf4_o[] = {
/* columns rows colors chars-per-pixel */
"32 32 4 1 ",
"  c #D4D29B",
". c #584422",
"X c #78A46A",
"o c #5E8549",
/* pixels */
"  ............................  ",
"  ............................  ",
"..                            ..",
"..                            ..",
"............        ............",
"............        ............",
"..XXXXXXXX  ........  XXXXXXXX..",
"..XXXXXXXX  ........  XXXXXXXX..",
"..oooooo  ............  oooooo..",
"..oooooo  ............  oooooo..",
"........  ............  ........",
"........  ............  ........",
"..XXXXXX  ............  XXXXXX..",
"..XXXXXX  ............  XXXXXX..",
"..oooooo  ............  oooooo..",
"..oooooo  ............  oooooo..",
"........    ........    ........",
"........    ........    ........",
"..XXXXXXXX    ....    XXXXXXXX..",
"..XXXXXXXX    ....    XXXXXXXX..",
"..oooooooo  ........  oooooooo..",
"..oooooooo  ........  oooooooo..",
"........    ........    ........",
"........    ........    ........",
"..XXXXXX  ............  XXXXXX..",
"..XXXXXX  ............  XXXXXX..",
"..oooooo  ............  oooooo..",
"..oooooo  ............  oooooo..",
"..                            ..",
"..                            ..",
"  ............................  ",
"  ............................  "
};
