/* XPM */
static char *_b4a405c3bf181d7db0784e7af9173a5c021dd56_o[] = {
/* columns rows colors chars-per-pixel */
"32 32 2 1 ",
"  c #D4D29B",
". c #78A46A",
/* pixels */
"                                ",
"                                ",
"                                ",
"                                ",
"                                ",
"                                ",
"                                ",
"                                ",
"        ..                      ",
"        ..                      ",
"                                ",
"                                ",
"                ....            ",
"                ....            ",
"              ..    ..          ",
"              ..    ..          ",
"                                ",
"                                ",
"                                ",
"                                ",
"                                ",
"                                ",
"                                ",
"                                ",
"          ..            ..      ",
"          ..            ..      ",
"        ..  ..                  ",
"        ..  ..                  ",
"                                ",
"                                ",
"                                ",
"                                "
};
