/* XPM */
static char *cabaf9ee49430d2e94213549b648f800591b67ea_o[] = {
/* columns rows colors chars-per-pixel */
"32 32 4 1 ",
"  c #D4D29B",
". c #584422",
"X c #78A46A",
"o c #5E8549",
/* pixels */
"                                ",
"                                ",
"          ..............        ",
"          ..............        ",
"        ..XXXX  XX      ..      ",
"        ..XXXX  XX      ..      ",
"      ..XX....XXXXXXXXXX  ..    ",
"      ..XX....XXXXXXXXXX  ..    ",
"      ..XX..  ..XXXXXXXXXX..    ",
"      ..XX..  ..XXXXXXXXXX..    ",
"      ..oo..  ..XXXXoooooo..    ",
"      ..oo..  ..XXXXoooooo..    ",
"      ..oo..  oooooo  ......    ",
"      ..oo..  oooooo  ......    ",
"      ..oooo    ....  ..XX..    ",
"      ..oooo    ....  ..XX..    ",
"      ..oo..    ..XX      ..    ",
"      ..oo..    ..XX      ..    ",
"      ..oo..            ..      ",
"      ..oo..            ..      ",
"        ......oooo......  ..    ",
"        ......oooo......  ..    ",
"      ..    ..ooooooXX..  ..    ",
"      ..    ..ooooooXX..  ..    ",
"      ..    ..ooooooXX....      ",
"      ..    ..ooooooXX....      ",
"        ....oooo........        ",
"        ....oooo........        ",
"          ......    ....        ",
"          ......    ....        ",
"          ....                  ",
"          ....                  "
};
