/* XPM */
static char *_87246619a116e14915b033e1652d72a9d502a54_o[] = {
/* columns rows colors chars-per-pixel */
"32 32 4 1 ",
"  c #D4D29B",
". c #584422",
"X c #78A46A",
"o c #5E8549",
/* pixels */
"                                ",
"                                ",
"          ..............        ",
"          ..............        ",
"        ..XXXX  XX      ..      ",
"        ..XXXX  XX      ..      ",
"      ..XX....XXXXXXXXXX  ..    ",
"      ..XX....XXXXXXXXXX  ..    ",
"      ..oo..  ..XXXXXXXXXX..    ",
"      ..oo..  ..XXXXXXXXXX..    ",
"      ..oo..  ..XXXXoooooo..    ",
"      ..oo..  ..XXXXoooooo..    ",
"      ..oo..  oooooo  ......    ",
"      ..oo..  oooooo  ......    ",
"    ..oooooo    ....  ..XX..    ",
"    ..oooooo    ....  ..XX..    ",
"    ..oooo..    ..XX      ..    ",
"    ..oooo..    ..XX      ..    ",
"      ......            ....    ",
"      ......            ....    ",
"      ........oooo......    ..  ",
"      ........oooo......    ..  ",
"    ..    ..ooooooooXX..    ..  ",
"    ..    ..ooooooooXX..    ..  ",
"    ..    ..ooooooooXX......    ",
"    ..    ..ooooooooXX......    ",
"      ......oooo........        ",
"      ......oooo........        ",
"          ......    ....        ",
"          ......    ....        ",
"          ....                  ",
"          ....                  "
};
