/* XPM */
static char *e41dc8e358a3984c10f82e1b614bfbd982b57538_o[] = {
/* columns rows colors chars-per-pixel */
"32 32 4 1 ",
"  c #D4D29B",
". c #78A46A",
"X c #584422",
"o c #5E8549",
/* pixels */
"                                ",
"                                ",
"                                ",
"                                ",
"                                ",
"                                ",
"                                ",
"                                ",
"        ..                      ",
"        ..                      ",
"            XXXXXXXXXX          ",
"            XXXXXXXXXX          ",
"        XXXX..........XX        ",
"        XXXX..........XX        ",
"      XX      ..  ......XX      ",
"      XX      ..  ......XX      ",
"    XX..      ............XX    ",
"    XX..      ............XX    ",
"    XX................XX..XX    ",
"    XX................XX..XX    ",
"    XX........XX........ooXX    ",
"    XX........XX........ooXX    ",
"      XXoooo..ooooooooXXXX      ",
"      XXoooo..ooooooooXXXX      ",
"        XXXXXXXXXXXXXX  ..      ",
"        XXXXXXXXXXXXXX  ..      ",
"        ..  ..                  ",
"        ..  ..                  ",
"                                ",
"                                ",
"                                ",
"                                "
};
