/* XPM */
static char *_341bed8c21dec746003e54bb0b6037c5a20b388_o[] = {
/* columns rows colors chars-per-pixel */
"32 32 4 1 ",
"  c #D4D29B",
". c #78A46A",
"X c #584422",
"o c #5E8549",
/* pixels */
"                                ",
"                                ",
"                                ",
"                                ",
"                                ",
"                                ",
"                                ",
"                                ",
"        ..  XXXXXXXX            ",
"        ..  XXXXXXXX            ",
"          XX........XX          ",
"          XX........XX          ",
"        XX    ..  ....XX        ",
"        XX    ..  ....XX        ",
"      XX..    ..........XX      ",
"      XX..    ..........XX      ",
"      XX............XX..XX      ",
"      XX............XX..XX      ",
"      XX......XX......ooXX      ",
"      XX......XX......ooXX      ",
"      XXoo..........ooooXX      ",
"      XXoo..........ooooXX      ",
"        XXoo..ooooooooXX        ",
"        XXoo..ooooooooXX        ",
"          XXXXXXXXXXXX  ..      ",
"          XXXXXXXXXXXX  ..      ",
"        ..  ..                  ",
"        ..  ..                  ",
"                                ",
"                                ",
"                                ",
"                                "
};
