/* XPM */
static char *_912fabc689d75a117ee705fa49cfc75de99a7b4_o[] = {
/* columns rows colors chars-per-pixel */
"32 32 4 1 ",
"  c #D4D29B",
". c #584422",
"X c #78A46A",
"o c #5E8549",
/* pixels */
"      ....................      ",
"      ....................      ",
"    ..XX            XX  XX..    ",
"    ..XX            XX  XX..    ",
"  ..XX      XXXXXXXXXXXXXXoo..  ",
"  ..XX      XXXXXXXXXXXXXXoo..  ",
"  ..XX    XXXXXXXXXXXXXXXXoo..  ",
"  ..XX    XXXXXXXXXXXXXXXXoo..  ",
"..XXXX  XXXXXXXXXXXXXXXXXXoo....",
"..XXXX  XXXXXXXXXXXXXXXXXXoo....",
"..XXXX  XXXXXXXXXXXXXXXX  oo....",
"..XXXX  XXXXXXXXXXXXXXXX  oo....",
"..XXXX  XXXXXXXXXXXXXXXX  oo....",
"..XXXX  XXXXXXXXXXXXXXXX  oo....",
"..XXXX    XXXXXXXXXXXX    oo....",
"..XXXX    XXXXXXXXXXXX    oo....",
"..XXXXXX        XX      XXoo....",
"..XXXXXX        XX      XXoo....",
"..XX  XXXXXXXXooooXXXXooooXX....",
"..XX  XXXXXXXXooooXXXXooooXX....",
"..XX  XXXXooooooooooooooooXX....",
"..XX  XXXXooooooooooooooooXX....",
"..  XXXXooooooooooooooooooooXX..",
"..  XXXXooooooooooooooooooooXX..",
"..  XXXXooooooooooooooooooooXX..",
"..  XXXXooooooooooooooooooooXX..",
"..XXXXXXoooooooooooooooooooooo..",
"..XXXXXXoooooooooooooooooooooo..",
"..XXXXXXXXXXoooooooooooooooooo..",
"..XXXXXXXXXXoooooooooooooooooo..",
"  ............................  ",
"  ............................  "
};
